<svg width="683" height="683" viewBox="0 0 683 683" fill="none" xmlns="http://www.w3.org/2000/svg">
<path d="M85 86L593 66V631.5L85 596V86Z" fill="#D9D9D9"/>
<path d="M54.9333 2.5776C42 6.04427 31.8667 11.9109 21.8667 21.7776C11.8667 31.9109 6 41.9109 2.66667 55.3776C0 65.5109 0 70.7109 0 341.244C0 611.778 0 616.978 2.66667 627.111C6 640.578 11.8667 650.578 21.8667 660.711C32 670.711 42 676.578 55.4667 679.911C65.6 682.578 70.8 682.578 341.333 682.578C611.867 682.578 617.067 682.578 627.2 679.911C640.667 676.578 650.667 670.711 660.8 660.711C670.8 650.578 676.667 640.578 680 627.111C682.667 616.978 682.667 611.778 682.667 341.244C682.667 70.7109 682.667 65.5109 680 55.3776C676.533 41.6443 670.8 31.7776 660.133 21.2443C649.6 10.9776 641.2 6.04427 627.2 2.5776C617.067 -0.0890656 611.6 -0.0890656 340.8 0.0442678C72.8 0.0442678 64.4 0.177601 54.9333 2.5776ZM381.333 84.4443C438.533 91.6443 481.6 112.311 516.4 149.244C530.667 164.444 543.067 182.844 552.533 202.578C560.4 219.511 568.533 241.911 567.6 244.444C566.933 245.911 525.733 258.178 524.8 257.111C524.667 256.844 522.533 250.844 520.133 243.911C507.867 208.311 486.533 178.578 460 160.044C427.733 137.378 384.4 126.311 336 128.311C284.533 130.444 247.067 144.578 217.2 172.978C187.867 200.844 170.267 240.444 162.4 295.911C159.733 314.844 160.133 371.111 163.067 390.578C170.533 440.578 186.4 477.378 212 504.444C235.6 529.244 266.933 544.844 306 551.378C326 554.711 368.267 554.711 387.333 551.378C423.2 545.111 450.533 530.978 473.067 507.378C496.8 482.311 505.867 451.111 498.4 419.911C495.333 406.711 488.133 394.444 477.467 383.911C471.867 378.444 465.333 372.844 463.067 371.644L458.933 369.244L457.333 378.311C453.467 398.844 444.133 422.178 434 435.911C427.333 445.111 413.467 457.644 403.733 463.244C385.6 473.911 360.133 479.511 336.8 478.178C305.6 476.178 281.333 465.778 263.6 446.578C249.467 431.378 242.667 413.778 242.667 392.578C242.667 346.178 279.467 311.244 336.133 303.911C349.467 302.178 386 302.311 400.4 304.044C406.933 304.844 412.533 305.111 412.933 304.844C414.133 303.511 409.467 288.044 405.333 279.778C394.8 259.111 376 249.244 346.667 249.244C321.333 249.244 304.267 256.444 290.533 272.844L287.067 276.978L268.133 264.444L249.2 251.778L253.6 245.644C258.667 238.711 269.467 228.444 278.267 222.444C299.733 207.644 332.4 200.311 361.333 203.778C390.8 207.378 409.067 215.511 426.8 233.111C446.8 253.111 455.867 274.444 460.667 313.378C461.467 319.378 461.6 319.511 469.733 323.378C482.8 329.511 500.267 341.778 510.533 352.044C527.467 368.978 538.4 388.978 543.733 412.978C546.933 427.378 546.8 456.844 543.467 471.244C534.133 512.178 505.6 548.311 463.333 572.844C441.6 585.511 413.467 594.311 382.133 598.044C360.933 600.711 318.133 599.911 298.667 596.711C195.867 579.244 134.8 511.778 117.733 396.578C114.4 373.644 114.4 308.844 117.733 285.911C132.667 185.644 181.067 121.111 261.467 94.9776C275.6 90.3109 299.6 85.2443 316 83.5109C328.4 82.1776 367.6 82.7109 381.333 84.4443Z" fill="black"/>
<path d="M340.667 349.244C322.133 352.178 308.4 358.178 299.467 366.978C282.267 384.311 284.933 409.511 305.467 422.711C316.667 429.778 326.533 432.311 344 432.311C366.933 432.178 382.667 426.044 394.133 412.711C403.6 401.644 411.6 380.578 414 360.444L414.933 352.444L404.4 350.711C391.2 348.578 351.2 347.644 340.667 349.244Z" fill="black"/>
</svg>
